<?xml version="1.0" ?><svg width="512px" height="512px" viewBox="0 0 512 512" id="Capa_1" style="enable-background:new 0 0 512 512;" version="1.1" xml:space="preserve" xmlns="http://www.w3.org/2000/svg" xmlns:xlink="http://www.w3.org/1999/xlink"><g><circle cx="422.3" cy="390.4" r="5"/><circle cx="381.5" cy="390.4" r="5"/><circle cx="338.5" cy="390.4" r="5"/><path d="M185,385.4h-83.9c-2.8,0-5,2.2-5,5s2.2,5,5,5H185c2.8,0,5-2.2,5-5S187.8,385.4,185,385.4z"/><path d="M449.7,365.4H446v-197l20.5-20.5c5.8-5.8,9-13.8,9-21.9c-0.1-8-3.3-15.5-9-21c-10.4-10-26.4-11.1-38.1-2.7c0,0-0.2,0-0.2,0   c-11.7-8.4-27.7-7.3-38.1,2.7c-5.7,5.5-8.9,13-9,21c-0.1,7.1,2.4,14.1,6.9,19.6H112.5c-5.5,0-10,4.5-10,10v25H421v-2.7   c2.3,1.3,4.8,1.9,7.4,1.9c2.6,0,5.3-0.7,7.6-2.1v187.7H87.5v-14.5c0-2.8-2.2-5-5-5s-5,2.2-5,5v14.5h-3.7c-13.8,0-25,11.2-25,25   s11.2,25,25,25h375.8c13.8,0,25-11.2,25-25S463.4,365.4,449.7,365.4z M199.6,168.1h-73.2c-2.8,0-5-2.2-5-5s2.2-5,5-5h73.2   c2.8,0,5,2.2,5,5S202.3,168.1,199.6,168.1z M327.5,166.6c-0.2,0.2-0.5,0.4-0.8,0.6c-0.3,0.2-0.6,0.3-0.9,0.5   c-0.3,0.1-0.6,0.2-0.9,0.3c-0.3,0.1-0.7,0.1-1,0.1s-0.7,0-1-0.1c-0.3-0.1-0.6-0.2-0.9-0.3c-0.3-0.1-0.6-0.3-0.9-0.5   c-0.3-0.2-0.5-0.4-0.8-0.6c-0.9-0.9-1.5-2.2-1.5-3.5c0-0.3,0-0.7,0.1-1c0.1-0.3,0.2-0.6,0.3-0.9c0.1-0.3,0.3-0.6,0.5-0.9   c0.2-0.3,0.4-0.5,0.6-0.8c0.2-0.2,0.5-0.4,0.8-0.6c0.3-0.2,0.6-0.3,0.9-0.5c0.3-0.1,0.6-0.2,0.9-0.3c0.6-0.1,1.3-0.1,2,0   c0.3,0.1,0.6,0.2,0.9,0.3c0.3,0.1,0.6,0.3,0.9,0.5c0.3,0.2,0.5,0.4,0.8,0.6c0.2,0.2,0.4,0.5,0.6,0.8c0.2,0.3,0.3,0.6,0.5,0.9   c0.1,0.3,0.2,0.6,0.3,0.9c0.1,0.3,0.1,0.6,0.1,1C328.9,164.4,328.4,165.7,327.5,166.6z M355.7,166.6c-0.2,0.2-0.5,0.4-0.8,0.6   c-0.3,0.2-0.6,0.3-0.9,0.5c-0.3,0.1-0.6,0.2-0.9,0.3c-0.3,0.1-0.7,0.1-1,0.1s-0.7,0-1-0.1c-0.3-0.1-0.6-0.2-0.9-0.3   c-0.3-0.1-0.6-0.3-0.9-0.5c-0.3-0.2-0.5-0.4-0.8-0.6c-0.9-0.9-1.5-2.2-1.5-3.5c0-0.3,0-0.7,0.1-1c0.1-0.3,0.2-0.6,0.3-0.9   c0.1-0.3,0.3-0.6,0.5-0.9c0.2-0.3,0.4-0.5,0.6-0.8c0.2-0.2,0.5-0.4,0.8-0.6c0.3-0.2,0.6-0.3,0.9-0.5c0.3-0.1,0.6-0.2,0.9-0.3   c0.6-0.1,1.3-0.1,2,0c0.3,0.1,0.6,0.2,0.9,0.3c0.3,0.1,0.6,0.3,0.9,0.5c0.3,0.2,0.5,0.4,0.8,0.6c0.2,0.2,0.4,0.5,0.6,0.8   c0.2,0.3,0.3,0.6,0.5,0.9c0.1,0.3,0.2,0.6,0.3,0.9c0.1,0.3,0.1,0.6,0.1,1C357.2,164.4,356.6,165.7,355.7,166.6z M383.9,166.6   c-0.2,0.2-0.5,0.4-0.8,0.6c-0.3,0.2-0.6,0.3-0.9,0.5c-0.3,0.1-0.6,0.2-0.9,0.3c-0.3,0.1-0.7,0.1-1,0.1s-0.7,0-1-0.1   c-0.3-0.1-0.6-0.2-0.9-0.3c-0.3-0.1-0.6-0.3-0.9-0.5c-0.3-0.2-0.5-0.4-0.8-0.6c-0.9-0.9-1.5-2.2-1.5-3.5c0-0.3,0-0.7,0.1-1   c0.1-0.3,0.2-0.6,0.3-0.9c0.1-0.3,0.3-0.6,0.5-0.9c0.2-0.3,0.4-0.5,0.6-0.8c0.2-0.2,0.5-0.4,0.8-0.6c0.3-0.2,0.6-0.3,0.9-0.5   c0.3-0.1,0.6-0.2,0.9-0.3c0.6-0.1,1.3-0.1,2,0c0.3,0.1,0.6,0.2,0.9,0.3c0.3,0.1,0.6,0.3,0.9,0.5c0.3,0.2,0.5,0.4,0.8,0.6   c0.2,0.2,0.4,0.5,0.6,0.8c0.2,0.3,0.3,0.6,0.5,0.9c0.1,0.3,0.2,0.6,0.3,0.9c0.1,0.3,0.1,0.6,0.1,1   C385.4,164.4,384.8,165.7,383.9,166.6z M432,168.3c-1,1-2.3,1.5-3.7,1.5s-2.7-0.5-3.7-1.5l-27.5-27.5c-3.9-3.9-6.1-9.3-6-14.8   c0.1-5.3,2.2-10.3,5.9-13.9c6.9-6.6,17.5-7.4,25.3-1.8c3.6,2.6,8.4,2.6,11.9,0c7.7-5.6,18.4-4.8,25.3,1.8c3.8,3.6,5.9,8.6,5.9,13.9   c0.1,5.5-2.1,10.9-6,14.8L432,168.3z M449.7,405.4H73.8c-8.3,0-15-6.7-15-15s6.7-15,15-15h168.2v5c0,5.5,4.5,10,10,10h19.4   c5.5,0,10-4.5,10-10v-5h168.2c8.3,0,15,6.7,15,15S457.9,405.4,449.7,405.4z"/><path d="M108,286.2c0.1,0.3,0.3,0.6,0.5,0.9c0.2,0.3,0.4,0.5,0.6,0.8c0.2,0.2,0.5,0.4,0.8,0.6c0.3,0.2,0.6,0.3,0.9,0.5   c0.3,0.1,0.6,0.2,0.9,0.3c0.3,0.1,0.6,0.1,1,0.1c1.3,0,2.6-0.5,3.5-1.5c0.2-0.2,0.4-0.5,0.6-0.8c0.2-0.3,0.3-0.6,0.5-0.9   c0.1-0.3,0.2-0.6,0.3-0.9c0.1-0.3,0.1-0.7,0.1-1c0-0.3,0-0.6-0.1-1c-0.1-0.3-0.2-0.6-0.3-0.9c-0.1-0.3-0.3-0.6-0.5-0.9   c-0.2-0.3-0.4-0.5-0.6-0.8c-1.2-1.2-2.9-1.7-4.5-1.4c-0.3,0.1-0.6,0.2-0.9,0.3c-0.3,0.1-0.6,0.3-0.9,0.5c-0.3,0.2-0.5,0.4-0.8,0.6   c-0.2,0.2-0.4,0.5-0.6,0.8c-0.2,0.3-0.3,0.6-0.5,0.9c-0.1,0.3-0.2,0.6-0.3,0.9c-0.1,0.3-0.1,0.7-0.1,1c0,0.3,0,0.7,0.1,1   C107.8,285.6,107.9,285.9,108,286.2z"/><path d="M88,286.2c0.1,0.3,0.3,0.6,0.5,0.9c0.2,0.3,0.4,0.5,0.6,0.8c0.2,0.2,0.5,0.4,0.8,0.6c0.3,0.2,0.6,0.3,0.9,0.5   c0.3,0.1,0.6,0.2,0.9,0.3c0.3,0.1,0.6,0.1,1,0.1c1.3,0,2.6-0.5,3.5-1.5c0.2-0.2,0.4-0.5,0.6-0.8c0.2-0.3,0.3-0.6,0.5-0.9   c0.1-0.3,0.2-0.6,0.3-0.9c0.1-0.3,0.1-0.7,0.1-1c0-0.3,0-0.6-0.1-1c-0.1-0.3-0.2-0.6-0.3-0.9c-0.1-0.3-0.3-0.6-0.5-0.9   c-0.2-0.3-0.4-0.5-0.6-0.8c-1.2-1.2-2.9-1.7-4.5-1.4c-0.3,0.1-0.6,0.2-0.9,0.3c-0.3,0.1-0.6,0.3-0.9,0.5c-0.3,0.2-0.5,0.4-0.8,0.6   c-0.2,0.2-0.4,0.5-0.6,0.8c-0.2,0.3-0.3,0.6-0.5,0.9c-0.1,0.3-0.2,0.6-0.3,0.9c-0.1,0.3-0.1,0.7-0.1,1c0,0.3,0,0.7,0.1,1   C87.8,285.6,87.9,285.9,88,286.2z"/><path d="M76.2,287.8c0.2-0.2,0.4-0.5,0.6-0.8c0.2-0.3,0.3-0.6,0.5-0.9c0.1-0.3,0.2-0.6,0.3-0.9c0.1-0.3,0.1-0.7,0.1-1   c0-0.3,0-0.6-0.1-1c-0.1-0.3-0.2-0.6-0.3-0.9c-0.1-0.3-0.3-0.6-0.5-0.9c-0.2-0.3-0.4-0.5-0.6-0.8c-0.2-0.2-0.5-0.4-0.8-0.6   c-0.3-0.2-0.6-0.3-0.9-0.5c-0.3-0.1-0.6-0.2-0.9-0.3c-1.6-0.3-3.3,0.2-4.5,1.4c-0.2,0.2-0.4,0.5-0.6,0.8c-0.2,0.3-0.3,0.6-0.5,0.9   c-0.1,0.3-0.2,0.6-0.3,0.9c-0.1,0.3-0.1,0.7-0.1,1c0,0.3,0,0.7,0.1,1c0.1,0.3,0.2,0.6,0.3,0.9c0.1,0.3,0.3,0.6,0.5,0.9   c0.2,0.3,0.4,0.5,0.6,0.8c0.9,0.9,2.2,1.5,3.5,1.5c0.3,0,0.7,0,1-0.1c0.3-0.1,0.6-0.2,0.9-0.3c0.3-0.1,0.6-0.3,0.9-0.5   C75.7,288.3,76,288,76.2,287.8z"/><path d="M92.2,332.6c3.5,0,7-0.4,10.3-1.1v8.9c0,5.5,4.5,10,10,10H411c5.5,0,10-4.5,10-10V190.6H102.5v46.6   c-3.3-0.7-6.8-1.1-10.3-1.1c-1.6,0-3.1,0.1-4.7,0.2V135.6c0-2.8,2.2-5,5-5h268.6c2.8,0,5-2.2,5-5c0-2.8-2.2-5-5-5H92.5   c-8.3,0-15,6.7-15,15v102.7c-19.5,6.2-33.6,24.5-33.6,46c0,6.2,1.1,12.1,3.4,17.8l-10.5,31.3c-0.6,1.8-0.1,3.8,1.2,5.1   c1,1,2.2,1.5,3.5,1.5c0.5,0,1.1-0.1,1.6-0.3l31.3-10.5C80.1,331.4,86,332.6,92.2,332.6z M161.4,322.4c2,2,2,5.1,0,7.1   c-1,1-2.3,1.5-3.5,1.5c-1.3,0-2.6-0.5-3.5-1.5l-3.4-3.4l-3.4,3.4c-1,1-2.3,1.5-3.5,1.5s-2.6-0.5-3.5-1.5c-2-2-2-5.1,0-7.1l3.4-3.4   l-3.4-3.4c-2-2-2-5.1,0-7.1c2-2,5.1-2,7.1,0l3.4,3.4l3.4-3.4c2-2,5.1-2,7.1,0c2,2,2,5.1,0,7.1l-3.4,3.4L161.4,322.4z M286.9,334.2   h-43.2c-2.8,0-5-2.2-5-5s2.2-5,5-5h43.2c2.8,0,5,2.2,5,5S289.7,334.2,286.9,334.2z M352.2,213c0-5.5,4.5-10,10-10h28.1   c5.5,0,10,4.5,10,10v111.2c0,5.5-4.5,10-10,10h-28.1c-5.5,0-10-4.5-10-10V213z M305.1,237.1c-2-2-2-5.1,0-7.1c2-2,5.1-2,7.1,0   l14.4,14.4c2,2,2,5.1,0,7.1l-14.4,14.4c-1,1-2.3,1.5-3.5,1.5s-2.6-0.5-3.5-1.5c-2-2-2-5.1,0-7.1L316,248L305.1,237.1z M302.2,307.2   c3.4-3.3,8.7-3.6,12.5-0.9c0.7,0.5,1.7,0.5,2.4,0c3.8-2.7,9.1-2.4,12.5,0.9c4,3.8,3.9,10.2,0,14.1l-10.8,10.8   c-1.6,1.6-4.1,1.6-5.7,0l-10.8-10.8C298.3,317.5,298.2,311.1,302.2,307.2z M174.9,218c0-8.3,6.7-15,15-15h87c8.3,0,15,6.7,15,15v60   c0,8.3-6.7,15-15,15h-87c-8.3,0-15-6.7-15-15V218z M179.9,303.7h107c2.8,0,5,2.2,5,5s-2.2,5-5,5h-107c-2.8,0-5-2.2-5-5   S177.1,303.7,179.9,303.7z M179.9,324.2h33.8c2.8,0,5,2.2,5,5s-2.2,5-5,5h-33.8c-2.8,0-5-2.2-5-5S177.1,324.2,179.9,324.2z    M140.2,244.4l14.4-14.4c2-2,5.1-2,7.1,0c2,2,2,5.1,0,7.1L150.8,248l10.8,10.8c2,2,2,5.1,0,7.1c-1,1-2.3,1.5-3.5,1.5   s-2.6-0.5-3.5-1.5l-14.4-14.4c-0.9-0.9-1.5-2.2-1.5-3.5S139.3,245.4,140.2,244.4z M49.5,327l7.9-23.5c0.4-1.2,0.3-2.5-0.2-3.6   c-2.2-4.9-3.3-10.2-3.3-15.6c0-21.1,17.2-38.3,38.3-38.3c21.1,0,38.3,17.2,38.3,38.3s-17.2,38.3-38.3,38.3   c-5.4,0-10.6-1.1-15.6-3.3c-1.1-0.5-2.4-0.6-3.6-0.2L49.5,327z"/><path d="M189.9,283h14.7c1.4-8.3,6.4-15.4,13.2-19.7c-5.8-4.6-9.5-11.7-9.5-19.6c0-13.8,11.3-25.1,25.1-25.1   c13.8,0,25.1,11.3,25.1,25.1c0,7.9-3.7,15-9.5,19.6c6.8,4.3,11.8,11.4,13.2,19.7h14.7c2.8,0,5-2.2,5-5v-60c0-2.8-2.2-5-5-5h-87   c-2.8,0-5,2.2-5,5v60C184.9,280.7,187.1,283,189.9,283z"/><path d="M233.4,258.7c8.3,0,15.1-6.8,15.1-15.1s-6.8-15.1-15.1-15.1c-8.3,0-15.1,6.8-15.1,15.1S225.1,258.7,233.4,258.7z"/><path d="M233.4,268.7c-8.9,0-16.3,6-18.6,14.2h37.1C249.7,274.8,242.3,268.7,233.4,268.7z"/></g></svg>